<svg width="175" height="80" viewBox="0 0 175 80" fill="none" xmlns="http://www.w3.org/2000/svg">
<path d="M0.0206299 20.6803H7.02477V39.493L15.9391 20.6803H22.9433L14.6078 37.1053L23.0735 65.3099H15.751L9.83222 45.4408L7.02477 51.0701V65.2665H0.0206299V20.6803Z" fill="white"/>
<path d="M28.4858 20.6803H35.4899V65.2521H28.4858V20.6803Z" fill="white"/>
<path d="M42.8125 20.6803H49.8166V39.493L58.731 20.6803H65.7351L57.3996 37.1053L65.8653 65.3099H58.5428L52.6241 45.4408L49.8166 51.0701V65.2665H42.8125V20.6803Z" fill="white"/>
<path d="M72.2327 63.0524C70.3511 60.7088 69.4165 57.7449 69.6134 54.7459V52.1989H76.2413V55.2523C76.2413 58.1466 77.4569 59.5938 79.8736 59.5938C80.3733 59.6273 80.8743 59.5514 81.3417 59.3715C81.8091 59.1915 82.2316 58.9118 82.5798 58.5518C83.2798 57.5574 83.6076 56.3484 83.5059 55.1366C83.5355 53.4068 83.0954 51.7013 82.2325 50.2018C80.9173 48.274 79.328 46.5482 77.5148 45.079C75.1369 43.1219 73.0938 40.7904 71.4658 38.1761C70.309 36.0309 69.7257 33.6233 69.7726 31.1865C69.5868 28.2146 70.5446 25.2841 72.4498 22.9957C73.4677 21.9923 74.6863 21.2157 76.0256 20.7169C77.365 20.2181 78.7947 20.0083 80.2209 20.1014C81.6238 20.002 83.0315 20.2094 84.346 20.7093C85.6606 21.2091 86.8505 21.9893 87.8329 22.9957C89.6875 25.3572 90.6048 28.3204 90.4088 31.3167V33.1546H83.752V30.8102C83.8552 29.6272 83.5431 28.4451 82.8692 27.4673C82.5364 27.1138 82.1279 26.8403 81.6742 26.6673C81.2205 26.4944 80.7336 26.4265 80.2499 26.4688C77.92 26.4688 76.7478 27.9159 76.7478 30.7379C76.7416 32.3364 77.1936 33.9033 78.0502 35.2529C79.3882 37.1631 80.9857 38.8776 82.7968 40.3468C85.2115 42.2828 87.2602 44.6353 88.8459 47.2931C90.001 49.5575 90.573 52.0743 90.5101 54.6156C90.7086 57.6602 89.7411 60.6663 87.8039 63.0235C86.7745 64.0401 85.5393 64.8244 84.1814 65.3237C82.8234 65.8229 81.3743 66.0255 79.9315 65.9177C78.5174 66.0249 77.0969 65.8242 75.7678 65.3296C74.4387 64.8349 73.2327 64.058 72.2327 63.0524Z" fill="white"/>
<path d="M98.8166 63.0814C96.9295 60.8241 95.9815 57.9281 96.1684 54.9919V31.0562C95.983 28.1201 96.9308 25.2248 98.8166 22.9667C99.8147 21.9652 101.015 21.1888 102.338 20.6896C103.661 20.1904 105.076 19.98 106.486 20.0725C107.897 19.979 109.312 20.189 110.635 20.6883C111.958 21.1875 113.159 21.9644 114.156 22.9667C116.042 25.2248 116.99 28.1201 116.805 31.0562V35.7739H110.177V30.6076C110.177 27.8581 109.019 26.4688 106.675 26.4688C104.33 26.4688 103.173 27.9159 103.173 30.6076V55.5128C103.173 58.219 104.345 59.5793 106.675 59.5793C109.004 59.5793 110.177 58.219 110.177 55.5128V48.6968H116.805V54.9919C116.991 57.9281 116.043 60.8241 114.156 63.0814C113.159 64.0836 111.958 64.8606 110.635 65.3598C109.312 65.8591 107.897 66.069 106.486 65.9756C105.076 66.0681 103.661 65.8577 102.338 65.3585C101.015 64.8593 99.8147 64.0829 98.8166 63.0814Z" fill="white"/>
<path d="M125.458 63.0235C123.512 60.7207 122.532 57.7547 122.723 54.7458V31.3167C122.531 28.3077 123.511 25.3411 125.458 23.0391C127.651 21.1429 130.454 20.0994 133.353 20.0994C136.252 20.0994 139.054 21.1429 141.247 23.0391C143.207 25.3343 144.194 28.3046 143.996 31.3167V54.7458C144.194 57.758 143.207 60.7282 141.247 63.0235C140.211 64.0351 138.972 64.816 137.613 65.3148C136.254 65.8137 134.804 66.0191 133.36 65.9177C131.913 66.0203 130.461 65.8154 129.099 65.3166C127.737 64.8177 126.497 64.0362 125.458 63.0235ZM137.036 55.1945V30.8102C137.036 27.9159 135.82 26.4688 133.403 26.4688C130.986 26.4688 129.771 27.9159 129.771 30.8102V55.1945C129.771 58.0887 130.986 59.5359 133.403 59.5359C135.82 59.5359 136.992 58.1177 136.992 55.1945H137.036Z" fill="white"/>
<path d="M149.437 11.4909C149.287 10.9185 149.2 10.3313 149.177 9.7399C149.07 7.62251 149.807 5.54913 151.225 3.97343C152.644 2.39772 154.629 1.44799 156.745 1.33204L156.876 3.31462C156.439 3.31225 156.005 3.37567 155.588 3.50274C154.83 3.71312 154.121 4.07136 153.502 4.55684C152.884 5.04232 152.367 5.64544 151.982 6.33146C151.597 7.01748 151.352 7.77284 151.261 8.55403C151.169 9.33521 151.233 10.1268 151.449 10.8831L153.707 19.0595L151.767 19.6383L149.437 11.4909Z" fill="#4A6F5D"/>
<path d="M146.847 68.3345H120.205V71.2432H146.847V68.3345Z" fill="#273A30"/>
<path d="M100.162 69.8829C100.16 71.7274 100.704 73.5312 101.727 75.066C102.75 76.6008 104.205 77.7976 105.909 78.5047C107.612 79.2119 109.487 79.3977 111.297 79.0386C113.106 78.6794 114.768 77.7915 116.072 76.4873C117.376 75.183 118.264 73.5211 118.623 71.712C118.982 69.9028 118.797 68.0278 118.089 66.3242C117.382 64.6207 116.185 63.1654 114.651 62.1424C113.116 61.1195 111.312 60.5749 109.468 60.5778C108.245 60.574 107.033 60.8121 105.902 61.2783C104.771 61.7446 103.744 62.4299 102.879 63.2947C102.015 64.1595 101.329 65.1868 100.863 66.3175C100.397 67.4482 100.159 68.6599 100.162 69.8829ZM109.468 75.3241C108.009 75.3241 106.61 74.7448 105.579 73.7135C104.548 72.6822 103.968 71.2835 103.968 69.825C103.968 68.7374 104.291 67.6742 104.895 66.7699C105.499 65.8655 106.358 65.1607 107.363 64.7445C108.368 64.3283 109.474 64.2194 110.54 64.4316C111.607 64.6437 112.587 65.1675 113.356 65.9365C114.125 66.7056 114.649 67.6855 114.861 68.7522C115.073 69.8189 114.964 70.9246 114.548 71.9294C114.132 72.9343 113.427 73.7931 112.523 74.3974C111.618 75.0016 110.555 75.3241 109.468 75.3241Z" fill="#273A30"/>
<path d="M165.674 60.6357C164.455 60.63 163.246 60.8647 162.118 61.3265C160.989 61.7883 159.963 62.4681 159.097 63.327C158.232 64.1859 157.544 65.207 157.073 66.3319C156.603 67.4568 156.359 68.6635 156.355 69.8829C156.352 71.7267 156.896 73.53 157.918 75.0645C158.941 76.599 160.395 77.7958 162.098 78.5034C163.801 79.211 165.675 79.3976 167.484 79.0396C169.292 78.6816 170.954 77.7952 172.259 76.4924C173.564 75.1896 174.453 73.5291 174.814 71.7209C175.175 69.9126 174.991 68.038 174.286 66.3343C173.581 64.6305 172.386 63.1741 170.854 62.1494C169.321 61.1248 167.518 60.5778 165.674 60.5778V60.6357ZM165.674 75.382C164.216 75.382 162.817 74.8026 161.786 73.7714C160.755 72.7401 160.175 71.3414 160.175 69.8829C160.175 68.7953 160.498 67.7321 161.102 66.8278C161.706 65.9234 162.565 65.2186 163.57 64.8024C164.575 64.3862 165.68 64.2773 166.747 64.4894C167.814 64.7016 168.794 65.2254 169.563 65.9944C170.332 66.7635 170.856 67.7433 171.068 68.8101C171.28 69.8768 171.171 70.9825 170.755 71.9873C170.339 72.9921 169.634 73.851 168.729 74.4552C167.825 75.0595 166.762 75.382 165.674 75.382Z" fill="#273A30"/>
<path d="M153.364 15.2082L150.596 15.8901L156.024 37.9225L158.792 37.2405L153.364 15.2082Z" fill="#4A6F5D"/>
<path d="M153.481 14.6952L150.278 15.4844L150.697 17.1846L153.9 16.3954L153.481 14.6952Z" fill="#273A30"/>
<path d="M152.866 13.6917L150.421 14.2941L150.715 15.4884L153.16 14.8861L152.866 13.6917Z" fill="#273A30"/>
<path d="M154.864 37.1631L159.524 35.991L163.46 52.1699L159.452 55.7878L154.864 37.1631Z" fill="#4A6F5D"/>
<path d="M159.782 35.4086L154.316 36.7552L154.718 38.3851L160.184 37.0385L159.782 35.4086Z" fill="#273A30"/>
<path d="M158.846 34.5516L154.701 35.5728L154.995 36.7671L159.14 35.7459L158.846 34.5516Z" fill="#273A30"/>
<path d="M161.854 48.089L167.02 69.1738C167.121 69.5996 167.05 70.048 166.822 70.4217C166.595 70.7955 166.229 71.0646 165.805 71.1708H165.674C165.458 71.2314 165.231 71.2473 165.008 71.2177C164.785 71.188 164.57 71.1135 164.376 70.9985C164.183 70.8835 164.015 70.7305 163.882 70.5487C163.75 70.3669 163.655 70.1601 163.605 69.9408L158.424 48.856C158.364 48.6393 158.348 48.4125 158.377 48.1894C158.407 47.9663 158.482 47.7516 158.597 47.5582C158.712 47.3647 158.865 47.1966 159.046 47.064C159.228 46.9314 159.435 46.837 159.654 46.7866H159.784C160.231 46.687 160.7 46.7679 161.087 47.0119C161.475 47.2558 161.75 47.6429 161.854 48.089Z" fill="#4A6F5D"/>
<path d="M155.327 1.72277V1.59252C155.435 1.3437 155.592 1.11908 155.788 0.931966C155.985 0.744855 156.217 0.599068 156.47 0.503248C156.724 0.407428 156.994 0.363525 157.265 0.374142C157.536 0.384759 157.802 0.449681 158.048 0.565057L164.126 3.08307C164.596 3.30144 164.965 3.6917 165.156 4.17356C165.347 4.65541 165.346 5.1922 165.153 5.67345V5.80369C164.935 6.27383 164.545 6.64239 164.063 6.83352C163.581 7.02464 163.044 7.0238 162.563 6.83116L156.557 4.31314C156.302 4.23085 156.065 4.09708 155.863 3.92007C155.661 3.74305 155.498 3.52654 155.382 3.28386C155.267 3.04119 155.203 2.77749 155.193 2.50901C155.184 2.24053 155.229 1.97296 155.327 1.72277Z" fill="#273A30"/>
<path d="M164.372 8.13358C165.731 8.13358 166.832 7.03214 166.832 5.67345C166.832 4.31476 165.731 3.21332 164.372 3.21332C163.013 3.21332 161.912 4.31476 161.912 5.67345C161.912 7.03214 163.013 8.13358 164.372 8.13358Z" fill="#273A30"/>
<path d="M163.475 52.1555L152.158 67.7411L145.241 68.841V61.7934C145.227 59.3334 145.899 56.9183 147.18 54.8182L149.958 50.2887C151.17 48.3114 152.874 46.6817 154.903 45.5583C156.931 44.4348 159.217 43.8559 161.536 43.8779L163.475 52.1555Z" fill="#273A30"/>
<path d="M117.948 73.7612L109.019 71.33C108.599 71.2187 108.24 70.945 108.021 70.5692C107.803 70.1933 107.743 69.746 107.854 69.3258C107.965 68.9055 108.239 68.5466 108.615 68.3282C108.991 68.1097 109.438 68.0495 109.858 68.1608L118.541 70.4907H138.7C141.687 70.5048 144.634 69.7994 147.292 68.4342C149.949 67.069 152.239 65.0841 153.967 62.6472L168.713 42.9227C168.972 42.5831 169.354 42.3591 169.777 42.2995C170.199 42.2399 170.628 42.3495 170.971 42.6044C171.311 42.8655 171.536 43.2501 171.595 43.6752C171.655 44.1002 171.545 44.5317 171.289 44.8764L156.601 64.514C154.591 67.3815 151.917 69.7201 148.807 71.3303C145.698 72.9405 142.245 73.7746 138.743 73.7612H117.948Z" fill="#4A6F5D"/>
<path d="M118.469 71.113C118.309 68.0261 116.972 65.118 114.732 62.9883C112.491 60.8585 109.52 59.6694 106.429 59.6661H103.144C102.714 59.6661 102.301 59.4954 101.998 59.1914C101.694 58.8874 101.523 58.4752 101.523 58.0453C101.523 57.6155 101.694 57.2032 101.998 56.8993C102.301 56.5953 102.714 56.4245 103.144 56.4245H106.501C110.418 56.4121 114.189 57.9086 117.032 60.6032C119.875 63.2979 121.571 66.9838 121.768 70.8959C121.776 71.3252 121.618 71.7411 121.327 72.0567C121.036 72.3722 120.634 72.563 120.205 72.589C119.787 72.5938 119.38 72.447 119.061 72.1757C118.742 71.9045 118.532 71.5271 118.469 71.113Z" fill="#4A6F5D"/>
<path d="M151.695 36.5988C151.163 33.8181 151.366 30.9466 152.285 28.2688C153.204 25.5909 154.806 23.1995 156.934 21.3315C158.945 19.5942 160.298 17.2177 160.764 14.601C161.231 11.9842 160.783 9.28671 159.495 6.9614L158.525 5.08012L159.104 4.76175L160.074 6.64303C161.417 9.09403 161.88 11.9306 161.388 14.6816C160.896 17.4326 159.477 19.9323 157.368 21.7656C155.314 23.5419 153.766 25.8287 152.879 28.3951C151.992 30.9615 151.798 33.7165 152.317 36.3817L154.199 46.0775L153.547 46.2077L151.695 36.5988Z" fill="#273A30"/>
</svg>
